# xmcd
#
# Track frame offsets: 
#        150
#        20593
#        43641
#        69078
#        90360
#        108756
#        136058
#        157278
#        179469
#        200995
#        223665
#        246298
#        264063
#        283543
#
# Disc length: 4051 seconds
#
# Revision: 0
# Processed by: cddbd v1.5.2PL0 Copyright (c) Steve Scherf et al.
# Submitted via: ExactAudioCopyFreeDBPlugin 1.0
#
DISCID=c30fd10e
DTITLE=群星 - stereo 一人一首发烧至尊版
DYEAR=2011
DGENRE=Acid
TTITLE0=陈影 - 爱一个人好难
TTITLE1=陈宁 - 野百合也有春天
TTITLE2=龚玥 - 谁的眼泪在飞
TTITLE3=晓花 - 无所谓
TTITLE4=江智民 - 不装饰你的梦
TTITLE5=周虹 - 我要的不多
TTITLE6=雷婷 - 爱情故事
TTITLE7=苏曼 - 橄榄树
TTITLE8=彭柯 - 千千阙歌
TTITLE9=童丽 - 外面的世界
TTITLE10=江智民&周虹 - 现代爱情故事
TTITLE11=钟明秋 - 祝你一路顺风
TTITLE12=周薇 - 一场游戏一场梦
TTITLE13=袁树雄 - 最后的温柔
EXTD=
EXTT0=
EXTT1=
EXTT2=
EXTT3=
EXTT4=
EXTT5=
EXTT6=
EXTT7=
EXTT8=
EXTT9=
EXTT10=
EXTT11=
EXTT12=
EXTT13=
PLAYORDER=
